<?xml version="1.0" encoding="UTF-8"?><svg id="My_starts" xmlns="http://www.w3.org/2000/svg" viewBox="0 0 148.63 182.28"><defs><style>.cls-1{stroke:#80adc8;stroke-width:8px;}.cls-1,.cls-2{fill:none;stroke-linejoin:round;}.cls-3{fill:#cd4632;}.cls-2{stroke:#000;stroke-width:4px;}</style></defs><path class="cls-3" d="M118.08,139.14c.6,2.2,1.65,4.35,3.41,6.23,2.03,2.17,4.43,3.53,6.73,4.42-1.65,.62-3.45,1.39-5.36,2.37-3.48,1.78-5.2,4.73-6.02,7.9-.6-2.14-1.35-4.38-2.46-6.63-1.06-2.15-3.12-4.63-7.02-5.44,3.53-1.55,6.89-3.34,8.78-5.63,.75-.91,1.39-2.01,1.95-3.22m2.78-15.59c-3.25,0-4.43,12.16-7.81,16.26-3.67,4.45-17.95,7.72-18.19,9.95-.23,2.19,.79,2.77,2.43,2.77,1.93,0,4.71-.81,7.34-.81,2.46,0,4.79,.71,6.16,3.47,3.93,7.93,3.01,16.68,8.16,18.85,.17,.07,.31,.1,.44,.1,2.66,0-2.47-14.49,5.28-18.43,11.62-5.92,18.64-3.74,13.48-7.55-1.35-1-8.96-.42-13.74-5.53-5.87-6.28-1.15-17.91-2.71-18.82-.3-.18-.58-.26-.85-.26h0Z"/><path class="cls-2" d="M34.72,153.06c-.63,3.08-2.33,7.47-.28,9.34,2.21,2.02,14.05,1.62,14.05,1.76,0,.3-11.99-.19-14.31,4.49-1.64,3.3-1.86,11.6-2.14,11.62s-.63-8.57-3.79-12.02c-3.81-4.16-8.52-.75-10-3.46-.47-.85,6.8,.5,11.27-2.85,2.9-2.17,4.3-6.63,5.2-8.89Z"/><path class="cls-1" d="M84.33,4.01c1.98,.46-7.33,31.29,5.49,48.08,13.61,17.82,54.21,7.89,54.8,10.38s-35.5-.9-53.27,20.61c-18.6,22.51-19.54,72.04-21.83,72.04s6.41-38.24-14.96-59.99c-20.47-20.83-43.2-22.13-42.43-23.05,1.86-2.23,29.15,10.55,45.94-16.79C72.42,31.94,82.16,3.51,84.33,4.01Z"/></svg>